# Blender v2.79 (sub 0) OBJ File: 'Skull_Fragment.blend'
# www.blender.org
mtllib DF_Skull_Part1_Keep.mtl
o DF_Skull_Part1_Keep_Centered_Skull.011
v 0.078576 -0.931394 -0.005781
v 0.127139 -0.944594 -0.010722
v 0.110879 -0.936134 0.003656
v 0.072758 -0.925874 0.014921
v 0.113663 -0.934321 0.013666
v 0.058702 -0.927147 0.001268
v 0.088335 -0.954599 -0.036594
v 0.061794 -0.951886 -0.054736
v 0.114480 -0.967647 -0.037746
v 0.096900 -0.973086 -0.056471
v 0.104981 -0.982281 -0.062867
v 0.135982 -0.992739 -0.043138
v 0.119381 -1.005101 -0.075015
v 0.139508 -0.957013 -0.018682
v 0.058419 -0.943846 -0.037095
v 0.047978 -0.955341 -0.090506
v 0.051691 -0.953906 -0.115977
v 0.067413 -0.962414 -0.091341
v 0.087168 -0.977001 -0.092127
v 0.048098 -0.941228 -0.031739
v 0.147369 -0.979120 -0.026194
v 0.177708 -0.997064 -0.040006
v 0.215912 -0.998912 -0.037652
v 0.206728 -0.987818 -0.016708
v 0.210340 -1.005988 -0.071673
v 0.250213 -0.999507 -0.073381
v 0.249291 -0.990606 -0.017790
v 0.284288 -0.988209 -0.035501
v 0.257989 -0.978530 0.007494
v 0.276051 -0.979387 0.005983
v 0.226878 -0.972580 0.004133
v 0.202754 -0.971353 0.000783
v 0.227648 -0.941709 0.024125
v 0.250478 -0.928841 0.040314
v 0.202859 -0.936478 0.023916
v 0.213494 -0.931250 0.031059
v 0.206407 -0.945951 0.017725
v 0.176056 -0.953695 -0.001683
v 0.180681 -0.969994 -0.009632
v 0.153125 -0.936998 0.011245
v 0.135982 -0.950155 -0.014404
v 0.173185 -0.935750 0.024366
v 0.176558 -0.937351 0.018945
v 0.145585 -1.009737 -0.072391
v 0.115253 -1.012378 -0.107915
v 0.107168 -1.003205 -0.091951
v 0.105972 -1.006993 -0.132215
v 0.093552 -0.987512 -0.105324
v 0.088121 -0.982402 -0.131425
v 0.130645 -1.011765 -0.155803
v 0.103686 -0.999800 -0.173204
v 0.125144 -1.015432 -0.119698
v 0.189283 -1.010747 -0.138988
v 0.171242 -1.008988 -0.173049
v 0.195810 -1.010711 -0.110217
v 0.042760 -0.949799 -0.148914
v 0.056982 -0.955727 -0.137024
v 0.065092 -0.958348 -0.177847
v 0.084701 -0.971425 -0.176721
v 0.078632 -0.967857 -0.204478
v 0.050506 -0.951937 -0.188580
v 0.089962 -0.978461 -0.164084
v 0.058553 -0.959888 -0.212643
v 0.064745 -0.954967 -0.243589
v 0.080463 -0.960790 -0.258080
v 0.083803 -0.968746 -0.242930
v 0.102470 -0.986924 -0.236890
v 0.099285 -0.981587 -0.276762
v 0.116752 -0.985124 -0.299014
v 0.094340 -0.974628 -0.303844
v 0.081220 -0.959992 -0.287370
v 0.123141 -0.974932 -0.334191
v 0.113382 -0.993708 -0.239131
v 0.091785 -0.973970 -0.225766
v 0.089632 -0.976965 -0.204499
v 0.101146 -0.992249 -0.204416
v 0.128500 -0.995646 -0.250008
v 0.198033 -0.998006 -0.218065
v 0.068850 -0.951310 -0.279423
v 0.059119 -0.950134 -0.265684
v 0.047360 -0.949882 -0.259640
v 0.041121 -0.942372 -0.293330
v 0.049120 -0.943273 -0.298767
v 0.062722 -0.946513 -0.317484
v 0.065537 -0.951139 -0.304484
v 0.085835 -0.968554 -0.329021
v 0.068055 -0.945944 -0.333838
v 0.099660 -0.973290 -0.337549
v 0.048519 -0.931606 -0.344095
v 0.044976 -0.934213 -0.319458
v 0.272099 -0.973682 -0.243628
v 0.217440 -0.981629 -0.269077
v 0.209913 -0.956908 -0.345235
v 0.106136 -0.961992 -0.369425
v 0.077220 -0.953472 -0.379572
v 0.076323 -0.955217 -0.355002
v 0.093719 -0.935385 -0.425713
v 0.208261 -0.926167 -0.416751
v 0.249586 -0.959862 -0.313751
v 0.291303 -0.912574 -0.404252
v 0.208439 -0.929189 0.039223
v 0.206511 -0.930270 0.033692
v 0.251398 -0.927209 0.044263
v 0.273760 -0.933835 0.048196
v 0.261618 -0.947327 0.028562
v 0.279409 -0.948967 0.031157
v 0.314137 -0.956298 0.028111
v 0.319745 -0.933140 0.047329
v 0.304640 -0.974737 0.002576
v 0.318869 -0.927542 0.053568
v 0.315407 -0.924930 0.061938
v 0.349380 -0.912408 0.057415
v 0.342319 -0.919403 0.048447
v 0.246536 -0.926017 0.050588
v 0.358690 -0.907022 0.070709
v 0.409681 -0.892941 0.065479
v 0.262261 -0.995769 -0.121215
v 0.316349 -0.965378 -0.216203
v 0.253751 -0.991924 -0.180025
v 0.291485 -0.935355 -0.347659
v 0.319440 -0.939878 -0.308128
v 0.312642 -0.981001 -0.081681
v 0.363555 -0.958533 -0.022015
v 0.353314 -0.952825 0.018519
v 0.389472 -0.949093 -0.059595
v 0.394651 -0.941296 -0.139009
v 0.333766 -0.968224 -0.150540
v 0.400946 -0.906907 0.040594
v 0.399015 -0.898940 0.051758
v 0.408463 -0.894470 0.054534
v 0.376148 -0.907141 0.045103
v 0.385251 -0.928207 0.030922
v 0.336198 -0.947422 0.033215
v 0.359478 -0.913667 0.048049
v 0.416842 -0.922542 0.016362
v 0.429802 -0.927596 -0.072991
v 0.409934 -0.938204 -0.036676
v 0.048861 -0.923179 -0.439850
v 0.354584 -0.885200 -0.419534
v 0.408466 -0.875870 -0.381887
v 0.454654 -0.873346 -0.309950
v 0.043012 -0.931532 -0.336422
v 0.032402 -0.909276 -0.436316
v 0.042759 -0.924191 -0.397278
v 0.061363 -0.939501 -0.397175
v 0.068306 -0.930204 -0.434941
v 0.066013 -0.942289 -0.349255
v 0.435953 -0.899773 -0.249301
v 0.059474 -0.937805 -0.331763
v 0.376226 -0.919840 -0.296444
v 0.426297 -0.919492 -0.173672
v 0.382660 -0.934818 -0.223792
vn -0.1955 -0.8300 0.5224
vn -0.1642 -0.9481 0.2721
vn -0.1550 -0.9282 0.3383
vn -0.1650 -0.9630 0.2131
vn -0.0836 -0.9426 0.3233
vn -0.1883 -0.9124 0.3635
vn -0.3243 -0.7383 0.5914
vn -0.4494 -0.8441 0.2922
vn -0.4732 -0.7742 0.4203
vn -0.3977 -0.6263 0.6705
vn -0.6005 -0.6732 0.4315
vn -0.4233 -0.8186 0.3883
vn -0.3313 -0.7292 0.5987
vn -0.2665 -0.7035 0.6588
vn -0.3390 -0.5270 0.7793
vn -0.3398 -0.9373 0.0768
vn -0.4896 -0.8653 0.1075
vn -0.4082 -0.9118 -0.0439
vn -0.6308 -0.7516 0.1928
vn -0.0623 -0.9388 0.3388
vn -0.1101 -0.9724 0.2056
vn -0.1424 -0.9104 0.3884
vn -0.1238 -0.8556 0.5027
vn -0.3048 -0.5801 0.7553
vn -0.0761 -0.9562 0.2827
vn -0.1332 -0.8080 0.5738
vn 0.0288 -0.9488 0.3146
vn 0.1109 -0.9854 0.1295
vn 0.2145 -0.9747 0.0628
vn 0.1287 -0.9915 0.0210
vn 0.2707 -0.9608 -0.0605
vn 0.0436 -0.9369 0.3468
vn 0.3414 -0.9399 -0.0073
vn 0.2483 -0.9593 0.1345
vn 0.0936 -0.8485 0.5208
vn -0.1038 -0.7494 0.6539
vn -0.1439 -0.6713 0.7271
vn -0.1629 -0.5946 0.7873
vn -0.2624 -0.6207 0.7388
vn -0.2020 -0.7924 0.5755
vn -0.1254 -0.7349 0.6664
vn -0.0496 -0.8445 0.5333
vn -0.2277 -0.5573 0.7985
vn -0.2135 -0.6086 0.7642
vn -0.0792 -0.6742 0.7342
vn -0.2911 -0.6132 0.7343
vn -0.2974 -0.5643 0.7701
vn -0.0172 -0.9661 0.2575
vn -0.0771 -0.8809 0.4668
vn 0.0560 -0.9455 0.3208
vn -0.4025 -0.9080 0.1161
vn -0.1422 -0.9897 -0.0133
vn -0.6858 -0.6858 0.2437
vn -0.7950 -0.5938 0.1239
vn -0.6032 -0.7958 -0.0520
vn -0.7404 -0.6718 -0.0205
vn -0.4937 -0.8691 -0.0309
vn -0.7767 -0.6226 -0.0950
vn -0.6168 -0.7779 -0.1197
vn -0.1442 -0.9801 -0.1365
vn 0.0767 -0.9869 -0.1420
vn 0.1373 -0.9878 -0.0733
vn 0.1528 -0.9676 -0.2011
vn -0.3703 -0.9286 -0.0201
vn -0.4187 -0.9061 0.0604
vn -0.4804 -0.8770 0.0022
vn -0.6703 -0.7412 -0.0355
vn -0.5134 -0.8579 0.0208
vn -0.4425 -0.8964 0.0249
vn -0.6286 -0.7689 -0.1165
vn -0.5133 -0.8301 -0.2179
vn -0.6399 -0.7544 -0.1460
vn -0.5798 -0.8081 -0.1037
vn -0.3254 -0.9424 -0.0778
vn -0.6480 -0.7580 -0.0738
vn -0.1291 -0.9680 -0.2150
vn -0.5443 -0.8378 -0.0428
vn -0.2441 -0.9371 -0.2493
vn -0.6580 -0.7518 0.0425
vn 0.0818 -0.9453 -0.3156
vn -0.5659 -0.8153 -0.1223
vn -0.0844 -0.9803 -0.1784
vn -0.6552 -0.7537 -0.0515
vn -0.6425 -0.7555 -0.1279
vn -0.7275 -0.6813 -0.0811
vn -0.4432 -0.8951 -0.0480
vn -0.2370 -0.9602 -0.1476
vn -0.1209 -0.9734 -0.1946
vn -0.2314 -0.9506 -0.2070
vn -0.3622 -0.9114 -0.1953
vn -0.5619 -0.8268 -0.0244
vn -0.6483 -0.7262 -0.2286
vn -0.7385 -0.6586 -0.1443
vn -0.7003 -0.7092 -0.0812
vn -0.5560 -0.8136 -0.1700
vn -0.3117 -0.9442 -0.1068
vn -0.4125 -0.8750 -0.2535
vn -0.6965 -0.7169 -0.0299
vn 0.1856 -0.9449 -0.2695
vn 0.2793 -0.9325 -0.2289
vn 0.1716 -0.9181 -0.3573
vn -0.0056 -0.9195 -0.3930
vn 0.1641 -0.9010 -0.4015
vn -0.0018 -0.9123 -0.4094
vn -0.4283 -0.8765 -0.2197
vn -0.2143 -0.9245 -0.3152
vn 0.2604 -0.8930 -0.3671
vn 0.2391 -0.9186 -0.3145
vn 0.2791 -0.8979 -0.3404
vn 0.3454 -0.8799 -0.3262
vn 0.0524 -0.9833 0.1740
vn -0.1509 -0.9221 0.3563
vn -0.1492 -0.7374 0.6588
vn 0.0808 -0.7363 0.6718
vn 0.1441 -0.6600 0.7373
vn 0.2502 -0.9061 0.3411
vn 0.3342 -0.8401 0.4271
vn 0.2775 -0.7701 0.5743
vn 0.3224 -0.8776 0.3547
vn 0.3738 -0.8351 0.4035
vn 0.2961 -0.7059 0.6435
vn 0.0201 -0.9798 0.1988
vn 0.2706 -0.9482 0.1664
vn 0.2746 -0.9560 0.1030
vn 0.2920 -0.9415 0.1679
vn 0.3481 -0.9193 -0.1833
vn 0.2611 -0.9548 -0.1418
vn 0.3332 -0.8991 -0.2839
vn 0.3748 -0.9217 -0.1003
vn 0.4346 -0.8827 -0.1785
vn 0.4115 -0.8743 -0.2574
vn 0.3868 -0.9118 0.1376
vn 0.4231 -0.9061 -0.0048
vn 0.4510 -0.8877 -0.0928
vn 0.4480 -0.8891 0.0936
vn 0.4776 -0.8690 -0.1295
vn 0.4683 -0.8823 -0.0474
vn 0.2810 -0.7400 0.6110
vn -0.1737 -0.2816 0.9437
vn 0.2373 -0.6628 0.7102
vn 0.3284 -0.6403 0.6944
vn 0.3190 -0.6595 0.6806
vn 0.2109 -0.6819 0.7004
vn 0.4337 -0.7943 0.4253
vn -0.1764 -0.9773 -0.1172
vn -0.6148 -0.7859 -0.0660
vn -0.5282 -0.8316 -0.1718
vn -0.5499 -0.8236 -0.1388
vn -0.6551 -0.7472 -0.1116
vn 0.4025 -0.8668 -0.2942
vn 0.4711 -0.8576 -0.2062
vn 0.4620 -0.8514 -0.2481
usemtl None
s 1
f 2//1 3//2 1//3
f 1//3 3//2 4//4
f 1//3 4//4 6//5
f 1//3 6//5 15//6
f 7//7 8//8 10//9
f 2//1 15//6 7//7
f 2//1 1//3 15//6
f 9//10 10//9 11//11
f 10//9 9//10 7//7
f 11//11 13//12 12//13
f 9//10 11//11 12//13
f 7//7 9//10 41//14
f 9//10 14//15 41//14
f 7//7 41//14 2//1
f 8//8 16//16 18//17
f 8//8 15//6 16//16
f 16//16 17//18 18//17
f 19//19 10//9 18//17
f 18//17 10//9 8//8
f 15//6 20//20 16//16
f 15//6 6//5 20//20
f 15//6 8//8 7//7
f 4//4 3//2 5//21
f 3//2 40//22 5//21
f 12//13 22//23 21//24
f 12//13 44//25 22//23
f 21//24 22//23 24//26
f 22//23 23//27 24//26
f 44//25 25//28 23//27
f 22//23 44//25 23//27
f 26//29 55//30 117//31
f 55//30 26//29 25//28
f 23//27 27//32 24//26
f 25//28 26//29 27//32
f 23//27 25//28 27//32
f 26//29 117//31 122//33
f 26//29 28//34 27//32
f 26//29 122//33 28//34
f 30//35 27//32 28//34
f 29//36 27//32 30//35
f 27//32 29//36 31//37
f 24//26 27//32 31//37
f 33//38 32//39 31//37
f 33//38 34//40 35//41
f 34//40 36//42 35//41
f 33//38 37//43 32//39
f 33//38 35//41 37//43
f 31//37 29//36 33//38
f 29//36 105//44 33//38
f 29//36 106//45 105//44
f 37//43 38//46 32//39
f 38//46 39//47 32//39
f 24//26 32//39 39//47
f 24//26 31//37 32//39
f 38//46 37//43 35//41
f 21//24 24//26 39//47
f 21//24 38//46 14//15
f 21//24 39//47 38//46
f 2//1 41//14 40//22
f 41//14 38//46 40//22
f 14//15 38//46 41//14
f 3//2 2//1 40//22
f 40//22 42//48 5//21
f 42//48 40//22 43//49
f 38//46 35//41 43//49
f 43//49 102//50 42//48
f 38//46 43//49 40//22
f 14//15 9//10 21//24
f 9//10 12//13 21//24
f 44//25 12//13 13//12
f 44//25 45//51 52//52
f 46//53 45//51 13//12
f 45//51 44//25 13//12
f 46//53 48//54 47//55
f 48//54 49//56 47//55
f 48//54 19//19 49//56
f 46//53 11//11 48//54
f 46//53 13//12 11//11
f 19//19 11//11 10//9
f 19//19 48//54 11//11
f 19//19 18//17 49//56
f 18//17 57//57 49//56
f 62//58 51//59 49//56
f 49//56 51//59 47//55
f 50//60 47//55 51//59
f 47//55 50//60 52//52
f 52//52 45//51 47//55
f 50//60 54//61 52//52
f 52//52 53//62 55//30
f 45//51 46//53 47//55
f 52//52 55//30 44//25
f 54//61 53//62 52//52
f 54//61 78//63 53//62
f 55//30 25//28 44//25
f 17//18 56//64 57//57
f 17//18 57//57 18//17
f 61//65 58//66 57//57
f 56//64 61//65 57//57
f 59//67 58//66 60//68
f 58//66 61//65 60//68
f 57//57 58//66 59//67
f 57//57 59//67 49//56
f 49//56 59//67 62//58
f 60//68 61//65 63//69
f 66//70 64//71 65//72
f 66//70 63//69 64//71
f 66//70 65//72 68//73
f 73//74 67//75 68//73
f 67//75 66//70 68//73
f 68//73 69//76 73//74
f 68//73 70//77 69//76
f 69//76 70//77 88//78
f 71//79 68//73 65//72
f 68//73 71//79 70//77
f 69//76 88//78 72//80
f 86//81 88//78 70//77
f 73//74 69//76 77//82
f 74//83 76//84 75//85
f 67//75 76//84 74//83
f 67//75 73//74 76//84
f 60//68 74//83 75//85
f 66//70 67//75 74//83
f 74//83 63//69 66//70
f 60//68 63//69 74//83
f 77//82 78//63 54//61
f 76//84 73//74 77//82
f 69//76 78//63 77//82
f 64//71 79//86 65//72
f 80//87 79//86 64//71
f 80//87 81//88 82//89
f 80//87 83//90 79//86
f 82//89 83//90 80//87
f 83//90 85//91 79//86
f 84//92 85//91 83//90
f 85//91 71//79 79//86
f 86//81 70//77 85//91
f 70//77 71//79 85//91
f 84//92 86//81 85//91
f 84//92 87//93 86//81
f 86//81 96//94 88//78
f 87//93 96//94 86//81
f 149//95 87//93 84//92
f 89//96 149//95 90//97
f 149//95 147//98 87//93
f 149//95 84//92 83//90
f 149//95 83//90 90//97
f 71//79 65//72 79//86
f 60//68 75//85 59//67
f 75//85 76//84 62//58
f 51//59 77//82 50//60
f 76//84 77//82 51//59
f 62//58 76//84 51//59
f 59//67 75//85 62//58
f 50//60 77//82 54//61
f 78//63 92//99 91//100
f 78//63 69//76 92//99
f 92//99 69//76 93//101
f 69//76 72//80 93//101
f 94//102 72//80 88//78
f 98//103 94//102 97//104
f 95//105 88//78 96//94
f 94//102 88//78 95//105
f 94//102 95//105 97//104
f 95//105 146//106 97//104
f 98//103 93//101 94//102
f 94//102 93//101 72//80
f 100//107 99//108 93//101
f 93//101 99//108 92//99
f 100//107 93//101 98//103
f 120//109 100//107 139//110
f 100//107 120//109 99//108
f 102//50 43//49 35//41
f 101//111 42//48 102//50
f 36//42 102//50 35//41
f 36//42 34//40 103//112
f 36//42 103//112 102//50
f 34//40 104//113 103//112
f 34//40 105//44 104//113
f 34//40 33//38 105//44
f 105//44 106//45 104//113
f 106//45 107//114 108//115
f 107//114 30//35 109//116
f 107//114 109//116 124//117
f 29//36 30//35 106//45
f 30//35 107//114 106//45
f 104//113 108//115 110//118
f 112//119 111//120 113//121
f 113//121 111//120 110//118
f 114//122 102//50 103//112
f 106//45 108//115 104//113
f 102//50 114//122 101//111
f 130//123 116//124 115//125
f 115//125 112//119 130//123
f 91//100 118//126 119//127
f 91//100 99//108 121//128
f 92//99 99//108 91//100
f 117//31 53//62 119//127
f 53//62 78//63 119//127
f 119//127 78//63 91//100
f 119//127 118//126 127//129
f 119//127 127//129 117//31
f 152//130 127//129 118//126
f 53//62 117//31 55//30
f 120//109 121//128 99//108
f 118//126 91//100 121//128
f 150//131 121//128 139//110
f 120//109 139//110 121//128
f 109//116 30//35 28//34
f 123//132 109//116 28//34
f 124//117 109//116 123//132
f 123//132 28//34 122//33
f 125//133 123//132 122//33
f 127//129 125//133 122//33
f 127//129 126//134 125//133
f 125//133 137//135 123//132
f 151//136 136//137 126//134
f 117//31 127//129 122//33
f 131//138 130//123 112//119
f 130//123 131//138 129//139
f 129//139 131//138 128//140
f 132//141 134//142 133//143
f 132//141 131//138 134//142
f 132//141 124//117 135//144
f 133//143 134//142 113//121
f 132//141 128//140 131//138
f 125//133 136//137 137//135
f 142//145 144//146 89//96
f 138//147 145//148 144//146
f 138//147 146//106 145//148
f 146//106 95//105 145//148
f 96//94 147//98 95//105
f 145//148 147//98 144//146
f 144//146 147//98 149//95
f 95//105 147//98 145//148
f 143//149 138//147 144//146
f 144//146 149//95 89//96
f 147//98 96//94 87//93
f 150//131 139//110 140//150
f 150//131 152//130 118//126
f 150//131 148//151 152//130
f 141//152 148//151 150//131
f 150//131 140//150 141//152
f 90//97 83//90 82//89
f 121//128 150//131 118//126
f 152//130 151//136 126//134
f 152//130 148//151 151//136
f 127//129 152//130 126//134
f 125//133 126//134 136//137
f 123//132 135//144 124//117
f 137//135 135//144 123//132
f 113//121 108//115 133//143
f 108//115 107//114 133//143
f 124//117 133//143 107//114
f 124//117 132//141 133//143
f 128//140 132//141 135//144
f 131//138 112//119 134//142
f 134//142 112//119 113//121
f 110//118 108//115 113//121
