# Blender v2.79 (sub 0) OBJ File: 'Skull_Fragment.blend'
# www.blender.org
mtllib DF_Skull_Part4_Keep.mtl
o DF_Skull_Part4_Keep_Centered_Skull.020
v 0.706694 -0.534586 -0.226493
v 0.709755 -0.528495 -0.232058
v 0.694647 -0.561595 -0.218149
v 0.689894 -0.612986 -0.302203
v 0.678584 -0.622037 -0.344000
v 0.653050 -0.645888 -0.390622
v 0.700890 -0.587889 -0.283276
v 0.707986 -0.564063 -0.254629
v 0.687553 -0.587117 -0.214098
v 0.689533 -0.580077 -0.211709
v 0.674995 -0.605880 -0.203427
v 0.675153 -0.604530 -0.205317
v 0.672710 -0.612143 -0.204109
v 0.679304 -0.620956 -0.211652
v 0.698299 -0.588647 -0.237016
v 0.669206 -0.621817 -0.197892
v 0.652883 -0.696393 -0.211707
v 0.673427 -0.656113 -0.280675
v 0.649834 -0.690611 -0.303294
v 0.644864 -0.708473 -0.261341
v 0.629419 -0.716133 -0.314919
v 0.666763 -0.630945 -0.197421
v 0.659021 -0.654619 -0.188174
v 0.661462 -0.637811 -0.189741
v 0.651607 -0.655638 -0.181861
v 0.645575 -0.667980 -0.172532
v 0.634139 -0.684282 -0.156249
v 0.632921 -0.685358 -0.156283
v 0.651566 -0.653766 -0.184255
v 0.649556 -0.684170 -0.175973
v 0.655889 -0.685215 -0.192290
v 0.613781 -0.761141 -0.175288
v 0.606661 -0.756466 -0.269892
v 0.587473 -0.791243 -0.197442
v 0.555579 -0.809675 -0.259052
v 0.634188 -0.717935 -0.163023
v 0.614837 -0.744110 -0.124954
v 0.609602 -0.763869 -0.132829
v 0.625423 -0.704483 -0.149709
v 0.628702 -0.692461 -0.152519
v 0.639743 -0.678456 -0.164632
v 0.617273 -0.719103 -0.132922
v 0.608161 -0.734434 -0.112299
v 0.582274 -0.764881 -0.075516
v 0.536229 -0.839496 -0.194281
v 0.553282 -0.830370 -0.141949
v 0.567993 -0.780640 -0.050468
v 0.555839 -0.798423 -0.028038
v 0.541507 -0.812963 -0.008475
v 0.523478 -0.831553 0.003339
v 0.553390 -0.816676 -0.040688
v 0.495731 -0.866391 0.006429
v 0.521857 -0.829038 0.009396
v 0.562556 -0.815403 -0.067833
v 0.569978 -0.813750 -0.113380
v 0.575726 -0.789934 -0.066717
v 0.507786 -0.872676 -0.084089
v 0.513096 -0.863431 -0.044849
v 0.468937 -0.899452 -0.029837
v 0.460091 -0.908449 -0.054473
v 0.487540 -0.849824 0.026342
v 0.467770 -0.887857 0.012771
v 0.463639 -0.903519 -0.116072
v 0.497588 -0.842440 0.026217
v 0.485561 -0.850426 0.033307
v 0.476216 -0.855821 0.035802
v 0.450115 -0.873987 0.056375
v 0.409681 -0.892941 0.065479
v 0.461079 -0.872086 0.031795
v 0.425061 -0.893670 0.038827
v 0.400946 -0.906907 0.040594
v 0.399015 -0.898940 0.051758
v 0.441884 -0.904963 0.012256
v 0.408463 -0.894470 0.054534
v 0.416842 -0.922542 0.016362
v 0.455862 -0.873231 0.038315
v 0.429802 -0.927596 -0.072991
v 0.409934 -0.938204 -0.036676
v 0.622613 -0.660124 -0.448298
v 0.444691 -0.720329 -0.610973
v 0.462928 -0.753293 -0.553121
v 0.508319 -0.713571 -0.559027
v 0.559148 -0.689290 -0.525350
v 0.596836 -0.658980 -0.502916
v 0.577216 -0.712028 -0.463208
v 0.545125 -0.718947 -0.505893
v 0.635801 -0.680134 -0.380005
v 0.602022 -0.711332 -0.410604
v 0.443058 -0.804191 -0.496761
v 0.504448 -0.767829 -0.485583
v 0.483110 -0.809708 -0.436895
v 0.550647 -0.751960 -0.442244
v 0.538354 -0.785752 -0.392035
v 0.519059 -0.779983 -0.442221
v 0.546700 -0.798479 -0.333494
v 0.585303 -0.753439 -0.357868
v 0.412303 -0.857449 -0.424014
v 0.444323 -0.818824 -0.468223
v 0.472572 -0.839953 -0.379209
v 0.408466 -0.875870 -0.381887
v 0.454654 -0.873346 -0.309950
v 0.505813 -0.818316 -0.375494
v 0.477218 -0.877816 -0.226864
v 0.435953 -0.899773 -0.249301
v 0.525244 -0.827605 -0.293562
v 0.502530 -0.873189 -0.142993
v 0.426297 -0.919492 -0.173672
vn 0.9195 -0.3836 0.0858
vn 0.8851 -0.2065 0.4170
vn 0.9238 -0.2494 0.2905
vn 0.9312 -0.3634 0.0268
vn 0.8982 -0.4350 -0.0627
vn 0.9142 -0.3947 -0.0913
vn 0.9304 -0.2794 0.2371
vn 0.8679 -0.2589 0.4239
vn 0.9516 -0.2991 0.0702
vn 0.8705 -0.4320 -0.2358
vn 0.8932 -0.3724 0.2517
vn 0.8990 -0.1993 0.3900
vn 0.8569 -0.1918 0.4784
vn 0.9456 -0.2452 0.2135
vn 0.9521 -0.2605 0.1601
vn 0.8943 -0.4446 0.0508
vn 0.8638 -0.4655 -0.1928
vn 0.8345 -0.5230 -0.1732
vn 0.8324 -0.5482 -0.0808
vn 0.7793 -0.5944 -0.1985
vn 0.8059 -0.5325 -0.2586
vn 0.8259 -0.1015 0.5546
vn 0.6988 0.0263 0.7148
vn 0.9022 -0.2944 0.3152
vn 0.8713 -0.4610 0.1682
vn 0.6973 -0.6149 -0.3684
vn 0.0897 -0.6319 -0.7698
vn 0.6424 -0.7180 -0.2676
vn 0.8687 -0.4677 0.1629
vn 0.6210 0.1924 0.7598
vn 0.9246 -0.3085 0.2234
vn 0.8438 -0.0958 0.5279
vn 0.8174 -0.5760 -0.0054
vn 0.7435 -0.6520 -0.1485
vn 0.7307 -0.6771 -0.0874
vn 0.6670 -0.7266 -0.1645
vn 0.9031 -0.2233 0.3668
vn 0.9075 -0.1735 0.3825
vn 0.8623 -0.4786 0.1651
vn 0.8890 -0.0835 0.4502
vn 0.8680 -0.0403 0.4949
vn 0.8968 -0.4337 0.0866
vn -0.9413 0.2090 -0.2649
vn 0.8509 -0.0429 0.5235
vn 0.7505 -0.6590 0.0490
vn 0.6864 -0.7260 -0.0420
vn 0.6478 -0.7616 0.0184
vn 0.6374 -0.7606 -0.1228
vn 0.8145 -0.4918 0.3076
vn 0.8743 -0.3679 0.3165
vn 0.7353 -0.5483 0.3983
vn 0.7309 -0.6810 0.0439
vn 0.6711 -0.6107 0.4202
vn 0.8745 -0.1791 0.4506
vn 0.8772 -0.2768 0.3923
vn 0.7909 -0.5831 0.1852
vn 0.6945 -0.7048 0.1440
vn 0.5956 -0.7884 0.1540
vn 0.6603 -0.6154 0.4303
vn 0.5680 -0.8220 0.0391
vn 0.5426 -0.7001 0.4640
vn 0.5597 -0.6479 0.5166
vn 0.6131 -0.6667 0.4238
vn 0.6023 -0.7934 -0.0876
vn 0.5517 -0.8307 -0.0744
vn 0.5782 -0.7920 0.1960
vn 0.4388 -0.8678 -0.2331
vn 0.6331 -0.7254 0.2701
vn 0.5463 -0.8104 0.2112
vn 0.4998 -0.8573 0.1231
vn 0.4320 -0.8981 0.0827
vn 0.3989 -0.8851 0.2397
vn 0.4804 -0.6764 0.5583
vn 0.3954 -0.7853 0.4763
vn 0.4124 -0.6686 0.6188
vn 0.5210 -0.7340 0.4357
vn 0.5399 -0.7203 0.4355
vn 0.5267 -0.8499 -0.0146
vn 0.5332 -0.8370 -0.1226
vn 0.5265 -0.8413 0.1224
vn 0.5553 -0.6669 -0.4968
vn 0.5235 -0.6892 -0.5009
vn 0.5127 -0.6664 -0.5413
vn 0.6687 -0.5958 -0.4448
vn 0.6308 -0.6391 -0.4400
vn 0.7692 -0.5429 -0.3370
vn 0.7438 -0.5970 -0.3005
vn 0.7075 -0.6018 -0.3704
vn 0.7289 -0.5621 -0.3907
vn 0.8310 -0.4964 -0.2510
vn 0.7096 -0.6616 -0.2421
vn 0.5593 -0.7071 -0.4325
vn 0.6550 -0.6708 -0.3478
vn 0.5916 -0.7221 -0.3586
vn 0.5273 -0.7705 -0.3581
vn 0.5137 -0.7385 -0.4366
vn 0.4954 -0.7776 -0.3871
vn 0.6347 -0.7180 -0.2856
vn 0.5771 -0.7707 -0.2700
vn 0.6517 -0.7265 -0.2179
vn 0.4777 -0.8134 -0.3318
vn 0.5139 -0.8073 -0.2900
vn 0.4758 -0.8269 -0.2996
vn 0.5407 -0.8105 -0.2251
vn 0.6059 -0.7712 -0.1953
vn 0.5623 -0.8116 -0.1585
vn 0.5341 -0.8277 -0.1723
usemtl None
s 1
f 1//1 3//2 2//3
f 7//4 18//5 4//6
f 15//7 3//2 9//8
f 2//3 3//2 15//7
f 3//2 10//9 9//8
f 10//9 11//10 12//11
f 10//9 12//11 9//8
f 12//11 13//12 9//8
f 13//12 14//13 9//8
f 14//13 15//7 9//8
f 11//10 16//14 12//11
f 2//3 15//7 8//15
f 8//15 15//7 7//4
f 15//7 14//13 17//16
f 18//5 15//7 17//16
f 5//17 4//6 18//5
f 5//17 18//5 19//18
f 18//5 20//19 19//18
f 19//18 20//19 21//20
f 87//21 19//18 21//20
f 17//16 20//19 18//5
f 15//7 18//5 7//4
f 14//13 13//12 22//22
f 22//22 23//23 14//13
f 22//22 29//24 23//23
f 22//22 24//25 29//24
f 13//12 12//11 22//22
f 16//14 22//22 12//11
f 22//22 16//14 24//25
f 29//24 24//25 25//26
f 24//25 26//27 25//26
f 26//27 27//28 28//29
f 29//24 25//26 41//30
f 14//13 23//23 31//31
f 14//13 31//31 17//16
f 29//24 30//32 23//23
f 30//32 31//31 23//23
f 25//26 26//27 41//30
f 30//32 29//24 41//30
f 17//16 32//33 20//19
f 20//19 32//33 33//34
f 20//19 33//34 21//20
f 34//35 33//34 32//33
f 33//34 34//35 35//36
f 17//16 31//31 36//37
f 37//38 38//39 36//37
f 39//40 43//41 37//38
f 39//40 37//38 36//37
f 32//33 17//16 38//39
f 38//39 17//16 36//37
f 40//42 39//40 41//30
f 40//42 43//41 39//40
f 40//42 42//43 43//41
f 39//40 36//37 41//30
f 36//37 31//31 30//32
f 41//30 36//37 30//32
f 28//29 40//42 26//27
f 40//42 41//30 26//27
f 44//44 37//38 43//41
f 28//29 42//43 40//42
f 34//35 32//33 55//45
f 46//46 34//35 55//45
f 46//46 55//45 57//47
f 34//35 45//48 35//36
f 34//35 46//46 45//48
f 32//33 38//39 55//45
f 51//49 48//50 50//51
f 48//50 49//52 50//51
f 49//52 53//53 50//51
f 47//54 51//49 56//55
f 56//55 51//49 54//56
f 47//54 48//50 51//49
f 56//55 54//56 38//39
f 44//44 47//54 56//55
f 55//45 38//39 54//56
f 37//38 56//55 38//39
f 57//47 55//45 58//57
f 54//56 58//57 55//45
f 37//38 44//44 56//55
f 54//56 51//49 58//57
f 59//58 58//57 52//59
f 58//57 51//49 52//59
f 59//58 60//60 57//47
f 62//61 59//58 52//59
f 59//58 57//47 58//57
f 62//61 52//59 69//62
f 61//63 69//62 52//59
f 50//51 52//59 51//49
f 106//64 57//47 63//65
f 64//66 65//67 66//68
f 64//66 66//68 61//63
f 64//66 61//63 53//53
f 50//51 61//63 52//59
f 50//51 53//53 61//63
f 76//69 66//68 67//70
f 76//69 67//70 68//71
f 76//69 68//71 74//72
f 70//73 69//62 74//72
f 69//62 76//69 74//72
f 70//73 74//72 72//74
f 70//73 72//74 71//75
f 75//76 73//77 70//73
f 75//76 70//73 71//75
f 62//61 69//62 73//77
f 69//62 70//73 73//77
f 76//69 69//62 61//63
f 66//68 76//69 61//63
f 59//58 62//61 73//77
f 63//65 60//60 77//78
f 107//79 63//65 77//78
f 77//78 60//60 78//80
f 78//80 59//58 75//76
f 60//60 59//58 78//80
f 63//65 57//47 60//60
f 73//77 75//76 59//58
f 82//81 81//82 80//83
f 83//84 86//85 82//81
f 79//86 87//21 88//87
f 79//86 85//88 84//89
f 85//88 86//85 83//84
f 84//89 85//88 83//84
f 6//90 5//17 87//21
f 19//18 87//21 5//17
f 79//86 6//90 87//21
f 88//87 87//21 21//20
f 88//87 21//20 96//91
f 82//81 90//92 81//82
f 86//85 90//92 82//81
f 90//92 86//85 92//93
f 94//94 90//92 92//93
f 90//92 91//95 89//96
f 89//96 91//95 98//97
f 90//92 89//96 81//82
f 79//86 88//87 85//88
f 92//93 93//98 94//94
f 93//98 92//93 96//91
f 94//94 102//99 91//95
f 93//98 102//99 94//94
f 88//87 92//93 85//88
f 93//98 96//91 95//100
f 96//91 92//93 88//87
f 21//20 33//34 96//91
f 98//97 91//95 97//101
f 99//102 97//101 91//95
f 99//102 100//103 97//101
f 99//102 101//104 100//103
f 102//99 99//102 91//95
f 91//95 90//92 94//94
f 85//88 92//93 86//85
f 33//34 35//36 96//91
f 101//104 99//102 102//99
f 102//99 95//100 105//105
f 105//105 101//104 102//99
f 105//105 103//106 101//104
f 93//98 95//100 102//99
f 35//36 95//100 96//91
f 95//100 35//36 105//105
f 35//36 45//48 105//105
f 103//106 104//107 101//104
f 105//105 45//48 103//106
f 106//64 63//65 103//106
f 106//64 103//106 45//48
f 103//106 63//65 107//79
f 107//79 104//107 103//106
f 45//48 46//46 106//64
f 106//64 46//46 57//47
